<svg class="AndroidTvLogo-0-1-2150" width="52" height="52" viewBox="0 0 52 52" fill="#c67b0d" xmlns="http://www.w3.org/2000/svg"><rect x="1.92578" y="10.5918" width="48.1481" height="26.963" rx="5" fill="#c67b0d" stroke="#c67b0d" stroke-width="2"></rect><line x1="15.4443" y1="40.4062" x2="36.5555" y2="40.4062" stroke="#c67b0d" stroke-width="2" stroke-linecap="round"></line><g clip-path="url(#clip0_28650_3119)"><path d="M22.9279 27.1359C22.9279 27.4175 23.1583 27.6479 23.4399 27.6479H23.9519V29.4399C23.9519 29.8649 24.2949 30.2079 24.7199 30.2079C25.1448 30.2079 25.4879 29.8649 25.4879 29.4399V27.6479H26.5119V29.4399C26.5119 29.8649 26.8549 30.2079 27.2799 30.2079C27.7048 30.2079 28.0479 29.8649 28.0479 29.4399V27.6479H28.5599C28.8415 27.6479 29.0719 27.4175 29.0719 27.1359V22.0159H22.9279V27.1359ZM21.6479 22.0159C21.2229 22.0159 20.8799 22.359 20.8799 22.7839V26.3679C20.8799 26.7929 21.2229 27.1359 21.6479 27.1359C22.0728 27.1359 22.4159 26.7929 22.4159 26.3679V22.7839C22.4159 22.359 22.0728 22.0159 21.6479 22.0159ZM30.3519 22.0159C29.9269 22.0159 29.5839 22.359 29.5839 22.7839V26.3679C29.5839 26.7929 29.9269 27.1359 30.3519 27.1359C30.7768 27.1359 31.1199 26.7929 31.1199 26.3679V22.7839C31.1199 22.359 30.7768 22.0159 30.3519 22.0159ZM27.8072 19.0258L28.4728 18.3602C28.5752 18.2578 28.5752 18.0991 28.4728 17.9967C28.3704 17.8943 28.2117 17.8943 28.1093 17.9967L27.3516 18.7545C26.9471 18.5497 26.4863 18.4319 25.9999 18.4319C25.5084 18.4319 25.0476 18.5497 24.638 18.7545L23.8751 17.9967C23.7727 17.8943 23.614 17.8943 23.5116 17.9967C23.4092 18.0991 23.4092 18.2578 23.5116 18.3602L24.1823 19.031C23.4245 19.589 22.9279 20.485 22.9279 21.5039H29.0719C29.0719 20.485 28.5752 19.5839 27.8072 19.0258V19.0258ZM24.9759 20.4799H24.4639V19.9679H24.9759V20.4799ZM27.5359 20.4799H27.0239V19.9679H27.5359V20.4799Z" fill="white"></path></g></svg>