<svg class="AndroidLogo-0-1-2148" width="40" height="40" viewBox="0 0 40 40" fill="none" xmlns="http://www.w3.org/2000/svg"><g clip-path="url(#clip0_28650_1705)"><path d="M12.3202 27.8398C12.3202 28.5438 12.8962 29.1198 13.6002 29.1198H14.8802V33.5998C14.8802 34.6622 15.7378 35.5198 16.8002 35.5198C17.8626 35.5198 18.7202 34.6622 18.7202 33.5998V29.1198H21.2802V33.5998C21.2802 34.6622 22.1378 35.5198 23.2002 35.5198C24.2626 35.5198 25.1202 34.6622 25.1202 33.5998V29.1198H26.4002C27.1042 29.1198 27.6802 28.5438 27.6802 27.8398V15.0398H12.3202V27.8398ZM9.1202 15.0398C8.0578 15.0398 7.2002 15.8974 7.2002 16.9598V25.9198C7.2002 26.9822 8.0578 27.8398 9.1202 27.8398C10.1826 27.8398 11.0402 26.9822 11.0402 25.9198V16.9598C11.0402 15.8974 10.1826 15.0398 9.1202 15.0398ZM30.8802 15.0398C29.8178 15.0398 28.9602 15.8974 28.9602 16.9598V25.9198C28.9602 26.9822 29.8178 27.8398 30.8802 27.8398C31.9426 27.8398 32.8002 26.9822 32.8002 25.9198V16.9598C32.8002 15.8974 31.9426 15.0398 30.8802 15.0398ZM24.5186 7.56461L26.1826 5.90061C26.4386 5.64461 26.4386 5.2478 26.1826 4.9918C25.9266 4.7358 25.5298 4.7358 25.2738 4.9918L23.3794 6.88621C22.3682 6.37421 21.2162 6.07981 20.0002 6.07981C18.7714 6.07981 17.6194 6.37421 16.5954 6.88621L14.6882 4.9918C14.4322 4.7358 14.0354 4.7358 13.7794 4.9918C13.5234 5.2478 13.5234 5.64461 13.7794 5.90061L15.4562 7.57741C13.5618 8.97261 12.3202 11.2126 12.3202 13.7598H27.6802C27.6802 11.2126 26.4386 8.95981 24.5186 7.56461V7.56461ZM17.4402 11.1998H16.1602V9.91981H17.4402V11.1998ZM23.8402 11.1998H22.5602V9.91981H23.8402V11.1998Z" fill="#51af39"></path></g></svg>