<svg width="40" height="40" viewBox="0 0 40 40" fill="none" xmlns="http://www.w3.org/2000/svg"><path fill-rule="evenodd" clip-rule="evenodd" d="M17.9763 14.2113C17.6596 14.0797 17.2929 14.153 17.0496 14.3947L14.2079 17.2363C13.8763 17.5697 13.8763 18.1063 14.2063 18.4397H14.2079C14.5379 18.7713 15.0779 18.773 15.4096 18.443C15.4096 18.4413 15.4113 18.4413 15.4113 18.4397L16.8029 17.0497V27.2747C16.8029 27.7447 17.1813 28.1247 17.6529 28.1247C18.1213 28.1247 18.5013 27.7447 18.5013 27.2747V14.9963C18.5013 14.653 18.2929 14.343 17.9763 14.2113Z" fill="#fff"></path><path fill-rule="evenodd" clip-rule="evenodd" d="M27.0534 24.2308C27.0517 25.4425 26.0684 26.4242 24.8584 26.4258C23.6467 26.4242 22.6634 25.4425 22.6617 24.2308V18.0408C22.6634 16.8292 23.6467 15.8475 24.8584 15.8475C26.0684 15.8475 27.0517 16.8292 27.0534 18.0408V24.2308ZM24.8584 14.1475C22.7084 14.1492 20.965 15.8908 20.9634 18.0408V24.2308C20.965 26.3808 22.7084 28.1225 24.8584 28.1242C27.0084 28.1225 28.7517 26.3808 28.7534 24.2308V18.0408C28.7517 15.8908 27.0084 14.1492 24.8584 14.1475Z" fill="#fff"></path><path fill-rule="evenodd" clip-rule="evenodd" d="M32.3384 9.56933C29.4551 6.66933 25.5301 5.04433 21.4417 5.056C17.3517 5.04433 13.4267 6.66933 10.5451 9.56933C7.44174 12.671 5.81008 16.946 6.05341 21.326L4.61008 19.8827C4.28008 19.551 3.74175 19.5493 3.41008 19.881C3.41008 19.881 3.41008 19.881 3.40841 19.8827C3.07508 20.2143 3.07508 20.751 3.40675 21.0843C3.40675 21.0843 3.40841 21.0843 3.40841 21.086L6.51341 24.191C6.67341 24.351 6.88841 24.441 7.11508 24.441C7.34008 24.441 7.55675 24.351 7.71675 24.191L10.8217 21.086C11.1551 20.7543 11.1551 20.216 10.8251 19.8843L10.8217 19.8827C10.4917 19.551 9.95341 19.5493 9.62175 19.881C9.62008 19.881 9.62008 19.881 9.61841 19.8827L7.78675 21.716C7.41341 17.6593 8.86174 13.6493 11.7401 10.7693C14.3051 8.18933 17.7951 6.74267 21.4351 6.75267C25.0734 6.74267 28.5634 8.18933 31.1284 10.7693C36.4751 16.1277 36.4751 24.801 31.1284 30.1593C30.7967 30.491 30.7967 31.0277 31.1284 31.361V31.3627C31.2884 31.5227 31.5051 31.6127 31.7317 31.611C31.9567 31.6127 32.1717 31.521 32.3317 31.3627C38.3417 25.341 38.3451 15.5927 32.3384 9.56933Z" fill="#fff"></path></svg>