<svg class="IosLogo-0-1-2149" width="40" height="40" viewBox="0 0 40 40" fill="none" xmlns="http://www.w3.org/2000/svg"><path d="M27.531 20.7579C27.5191 18.5729 28.5073 16.9238 30.5077 15.7093C29.3884 14.1078 27.6977 13.2267 25.4651 13.0541C23.3516 12.8874 21.0417 14.2865 20.1963 14.2865C19.3033 14.2865 17.2553 13.1136 15.6478 13.1136C12.3258 13.1672 8.79541 15.7629 8.79541 21.0436C8.79541 22.6034 9.08118 24.2148 9.65271 25.8778C10.4148 28.0628 13.1653 33.4209 16.0348 33.3316C17.5351 33.2959 18.5948 32.2659 20.5475 32.2659C22.4407 32.2659 23.4231 33.3316 25.096 33.3316C27.9894 33.2899 30.4779 28.42 31.2042 26.2291C27.3226 24.4014 27.531 20.871 27.531 20.7579ZM24.1613 10.9823C25.7866 9.05335 25.6378 7.29708 25.5901 6.66602C24.1553 6.74936 22.4943 7.64238 21.5477 8.74377C20.5059 9.92256 19.8927 11.3812 20.0236 13.0243C21.5775 13.1434 22.9944 12.3456 24.1613 10.9823Z" fill="#CCCCCC"></path></svg>