<svg width="80" height="80" viewBox="0 0 80 80" fill="none" xmlns="http://www.w3.org/2000/svg" class="emptyPlaylist-0-1-197"><g opacity="0.5"><path d="M69.1217 63.0144V17.5677C69.1217 7.14102 57.8351 0.621021 48.8018 5.83435L9.44175 28.561C0.408415 33.7744 0.408415 46.8077 9.44175 52.0277L48.8018 74.7544C57.8284 79.961 69.1217 73.441 69.1217 63.0144Z" fill="#666666"></path><path d="M66.1943 58.6145H15.2877C14.5543 58.6145 13.9543 58.0145 13.9543 57.2811V23.3411C13.9543 22.6078 14.5543 22.0078 15.2877 22.0078H66.1943C66.9277 22.0078 67.5277 22.6078 67.5277 23.3411V57.2811C67.5277 58.0211 66.9343 58.6145 66.1943 58.6145Z" fill="#AAAAAA"></path><path d="M66.0143 59.2812C65.6477 59.2812 65.3477 58.9812 65.3477 58.6146C65.3477 58.2479 65.6477 57.9479 66.0143 57.9479C66.481 57.9479 66.861 57.5679 66.861 57.1012C66.861 56.7346 67.161 56.4346 67.5277 56.4346C67.8943 56.4346 68.1943 56.7346 68.1943 57.1012C68.1943 58.3012 67.221 59.2812 66.0143 59.2812Z" fill="white"></path><path d="M52.0545 59.2808H15.4678C14.2678 59.2808 13.2878 58.3008 13.2878 57.1008V23.5208C13.2878 22.3208 14.2678 21.3408 15.4678 21.3408H66.0145C67.2145 21.3408 68.1945 22.3208 68.1945 23.5208V36.7675C68.1945 37.1342 67.8945 37.4342 67.5278 37.4342C67.1612 37.4342 66.8612 37.1342 66.8612 36.7675V23.5208C66.8612 23.0542 66.4812 22.6742 66.0145 22.6742H15.4678C15.0012 22.6742 14.6212 23.0542 14.6212 23.5208V57.1008C14.6212 57.5675 15.0012 57.9475 15.4678 57.9475H52.0545C52.4212 57.9475 52.7212 58.2475 52.7212 58.6141C52.7212 58.9808 52.4278 59.2808 52.0545 59.2808Z" fill="white"></path><path opacity="0.5" d="M49.3015 39.9876L38.7148 33.8743C37.8282 33.3609 36.7148 34.0009 36.7148 35.0276V47.2476C36.7148 48.2743 37.8282 48.9143 38.7148 48.4009L49.3015 42.2876C50.1882 41.7809 50.1882 40.5009 49.3015 39.9876Z" fill="#AAAAAA"></path><path d="M35.8542 48.2947C35.4809 48.2947 35.1076 48.1947 34.7676 48.0013C34.0876 47.608 33.6809 46.9013 33.6809 46.1147V34.5147C33.6809 33.728 34.0876 33.0213 34.7676 32.628C35.4476 32.2347 36.2609 32.2347 36.9476 32.628L41.0742 35.0147C41.3942 35.2013 41.5009 35.608 41.3209 35.928C41.1342 36.248 40.7276 36.3547 40.4076 36.1747L36.2809 33.788C35.9009 33.568 35.5609 33.7147 35.4342 33.788C35.3076 33.8613 35.0142 34.0813 35.0142 34.5213V46.1213C35.0142 46.5613 35.3076 46.7813 35.4342 46.8547C35.5609 46.928 35.9009 47.0747 36.2809 46.8547L46.3276 41.0547C46.7076 40.8347 46.7476 40.468 46.7476 40.3213C46.7476 40.1747 46.7076 39.808 46.3276 39.588L43.1076 37.728C42.7876 37.5413 42.6809 37.1347 42.8609 36.8147C43.0476 36.4947 43.4542 36.388 43.7742 36.568L46.9942 38.428C47.6742 38.8213 48.0809 39.528 48.0809 40.3147C48.0809 41.1013 47.6742 41.808 46.9942 42.2013L36.9476 48.0013C36.6076 48.1947 36.2342 48.2947 35.8542 48.2947Z" fill="white"></path><path d="M19.8346 47.7875C19.468 47.7875 19.168 47.4875 19.168 47.1208V22.0075C19.168 21.6408 19.468 21.3408 19.8346 21.3408C20.2013 21.3408 20.5013 21.6408 20.5013 22.0075V47.1208C20.5013 47.4875 20.208 47.7875 19.8346 47.7875Z" fill="white"></path><path d="M19.8346 59.2807C19.468 59.2807 19.168 58.9807 19.168 58.614V45.0407C19.168 44.674 19.468 44.374 19.8346 44.374C20.2013 44.374 20.5013 44.674 20.5013 45.0407V58.614C20.5013 58.9807 20.208 59.2807 19.8346 59.2807Z" fill="white"></path><path d="M19.8345 29.0345H13.9545C13.5878 29.0345 13.2878 28.7345 13.2878 28.3678C13.2878 28.0012 13.5878 27.7012 13.9545 27.7012H19.8345C20.2012 27.7012 20.5012 28.0012 20.5012 28.3678C20.5012 28.7345 20.2078 29.0345 19.8345 29.0345Z" fill="white"></path><path d="M19.8345 35.2874H13.9545C13.5878 35.2874 13.2878 34.9874 13.2878 34.6208C13.2878 34.2541 13.5878 33.9541 13.9545 33.9541H19.8345C20.2012 33.9541 20.5012 34.2541 20.5012 34.6208C20.5012 34.9874 20.2078 35.2874 19.8345 35.2874Z" fill="white"></path><path d="M19.8345 41.5345H13.9545C13.5878 41.5345 13.2878 41.2345 13.2878 40.8678C13.2878 40.5012 13.5878 40.2012 13.9545 40.2012H19.8345C20.2012 40.2012 20.5012 40.5012 20.5012 40.8678C20.5012 41.2345 20.2078 41.5345 19.8345 41.5345Z" fill="white"></path><path d="M19.8345 47.7874H13.9545C13.5878 47.7874 13.2878 47.4874 13.2878 47.1208C13.2878 46.7541 13.5878 46.4541 13.9545 46.4541H19.8345C20.2012 46.4541 20.5012 46.7541 20.5012 47.1208C20.5012 47.4874 20.2078 47.7874 19.8345 47.7874Z" fill="white"></path><path d="M61.6484 38.3808C61.2817 38.3808 60.9817 38.0808 60.9817 37.7142V22.0075C60.9817 21.6408 61.2817 21.3408 61.6484 21.3408C62.015 21.3408 62.315 21.6408 62.315 22.0075V37.7142C62.315 38.0808 62.0217 38.3808 61.6484 38.3808Z" fill="white"></path><path d="M61.6484 59.2806C61.2817 59.2806 60.9817 58.9806 60.9817 58.614V42.654C60.9817 42.2873 61.2817 41.9873 61.6484 41.9873C62.015 41.9873 62.315 42.2873 62.315 42.654V58.614C62.315 58.9806 62.0217 59.2806 61.6484 59.2806Z" fill="white"></path><path d="M67.4749 29.0345H61.6549C61.2883 29.0345 60.9883 28.7345 60.9883 28.3678C60.9883 28.0012 61.2883 27.7012 61.6549 27.7012H67.4749C67.8416 27.7012 68.1416 28.0012 68.1416 28.3678C68.1416 28.7345 67.8416 29.0345 67.4749 29.0345Z" fill="white"></path><path d="M67.5284 35.2874H61.6484C61.2817 35.2874 60.9817 34.9874 60.9817 34.6208C60.9817 34.2541 61.2817 33.9541 61.6484 33.9541H67.5284C67.895 33.9541 68.195 34.2541 68.195 34.6208C68.195 34.9874 67.895 35.2874 67.5284 35.2874Z" fill="white"></path><path d="M67.5284 41.5345H61.6484C61.2817 41.5345 60.9817 41.2345 60.9817 40.8678C60.9817 40.5012 61.2817 40.2012 61.6484 40.2012H67.5284C67.895 40.2012 68.195 40.5012 68.195 40.8678C68.195 41.2345 67.895 41.5345 67.5284 41.5345Z" fill="white"></path><path d="M67.5284 47.7874H61.6484C61.2817 47.7874 60.9817 47.4874 60.9817 47.1208C60.9817 46.7541 61.2817 46.4541 61.6484 46.4541H67.5284C67.895 46.4541 68.195 46.7541 68.195 47.1208C68.195 47.4874 67.895 47.7874 67.5284 47.7874Z" fill="white"></path><path d="M19.8345 54.0345H13.9545C13.5878 54.0345 13.2878 53.7345 13.2878 53.3678C13.2878 53.0012 13.5878 52.7012 13.9545 52.7012H19.8345C20.2012 52.7012 20.5012 53.0012 20.5012 53.3678C20.5012 53.7345 20.2078 54.0345 19.8345 54.0345Z" fill="white"></path><path d="M67.4749 54.0345H61.6549C61.2883 54.0345 60.9883 53.7345 60.9883 53.3678C60.9883 53.0012 61.2883 52.7012 61.6549 52.7012H67.4749C67.8416 52.7012 68.1416 53.0012 68.1416 53.3678C68.1416 53.7345 67.8416 54.0345 67.4749 54.0345Z" fill="white"></path><path d="M64.9676 62.4875C71.1679 62.4875 76.1943 57.4612 76.1943 51.2608C76.1943 45.0605 71.1679 40.0342 64.9676 40.0342C58.7673 40.0342 53.741 45.0605 53.741 51.2608C53.741 57.4612 58.7673 62.4875 64.9676 62.4875Z" fill="#AAAAAA"></path><path d="M64.9676 63.1539C58.4075 63.1539 53.0742 57.8205 53.0742 51.2605C53.0742 44.7005 58.4075 39.3672 64.9676 39.3672C71.5275 39.3672 76.8609 44.7005 76.8609 51.2605C76.8609 57.8205 71.5275 63.1539 64.9676 63.1539ZM64.9676 40.7072C59.1476 40.7072 54.4076 45.4405 54.4076 51.2672C54.4076 57.0939 59.1409 61.8272 64.9676 61.8272C70.7942 61.8272 75.5276 57.0939 75.5276 51.2672C75.5276 45.4405 70.7875 40.7072 64.9676 40.7072Z" fill="white"></path><path d="M70.4082 54.3282C71.6822 54.3282 72.7149 53.2954 72.7149 52.0215C72.7149 50.7476 71.6822 49.7148 70.4082 49.7148C69.1343 49.7148 68.1016 50.7476 68.1016 52.0215C68.1016 53.2954 69.1343 54.3282 70.4082 54.3282Z" fill="white"></path><path d="M65.7207 48.128C66.9947 48.128 68.0274 47.0953 68.0274 45.8213C68.0274 44.5474 66.9947 43.5146 65.7207 43.5146C64.4468 43.5146 63.4141 44.5474 63.4141 45.8213C63.4141 47.0953 64.4468 48.128 65.7207 48.128Z" fill="white"></path><path d="M59.5281 52.8145C60.802 52.8145 61.8348 51.7818 61.8348 50.5078C61.8348 49.2339 60.802 48.2012 59.5281 48.2012C58.2542 48.2012 57.2214 49.2339 57.2214 50.5078C57.2214 51.7818 58.2542 52.8145 59.5281 52.8145Z" fill="white"></path><path d="M64.2078 59.0147C65.4817 59.0147 66.5145 57.982 66.5145 56.708C66.5145 55.4341 65.4817 54.4014 64.2078 54.4014C62.9339 54.4014 61.9011 55.4341 61.9011 56.708C61.9011 57.982 62.9339 59.0147 64.2078 59.0147Z" fill="white"></path><path opacity="0.8" d="M30.5217 15.3343L28.5417 17.421L29.4617 14.6943L27.3684 12.721L30.0951 13.6343L32.0751 11.541L31.1551 14.2743L33.2484 16.2477L30.5217 15.3343Z" fill="#AAAAAA"></path><path d="M19.9414 16.5942C18.7814 16.5942 17.8347 15.6475 17.8347 14.4875C17.8347 13.3275 18.7814 12.3809 19.9414 12.3809C21.1014 12.3809 22.048 13.3275 22.048 14.4875C22.048 15.6475 21.1014 16.5942 19.9414 16.5942ZM19.9414 13.0409C19.1481 13.0409 18.5014 13.6875 18.5014 14.4809C18.5014 15.2742 19.1481 15.9209 19.9414 15.9209C20.7347 15.9209 21.3814 15.2742 21.3814 14.4809C21.3814 13.6875 20.7347 13.0409 19.9414 13.0409Z" fill="white"></path><path opacity="0.8" d="M48.9284 64.4542L51.8017 64.3742L49.2284 65.6542L49.3084 68.5342L48.0284 65.9542L45.155 66.0342L47.7284 64.7542L47.6484 61.8809L48.9284 64.4542Z" fill="#AAAAAA"></path></g></svg>