<svg width="160" height="160" viewBox="0 0 160 160" fill="none" xmlns="http://www.w3.org/2000/svg" class="svg-0-1-1245"><path d="M130.643 64.3233C132.64 64.4545 134.461 64.4321 136.233 64.7137C144.563 66.0417 149.92 74.2785 147.462 82.3521C142.765 97.7857 137.907 113.175 133.014 128.547C131.171 134.339 126.448 137.799 120.374 138.205C119.789 138.243 119.2 138.269 118.614 138.269C86.6751 138.269 54.7391 138.253 22.7999 138.291C17.4591 138.298 13.1007 136.503 10.0031 132.064C8.37748 129.731 7.56468 127.123 7.56788 124.253C7.57748 97.0145 7.56788 69.7761 7.57748 42.5377C7.58068 34.8289 13.1135 28.7361 20.8543 28.5121C30.5119 28.2337 40.1855 28.3905 49.8495 28.3873C51.8239 28.3873 53.8207 28.3457 55.7663 28.6177C58.6367 29.0177 61.1135 30.3809 63.1871 32.4225C65.2031 34.4065 67.2223 36.3937 69.2031 38.4161C71.1775 40.4321 73.5199 41.4049 76.3615 41.3953C89.5007 41.3601 102.637 41.3761 115.776 41.3825C124.697 41.3825 130.633 47.3153 130.64 56.2241C130.64 58.8897 130.64 61.5521 130.64 64.3265L130.643 64.3233ZM70.7199 133.053C86.8511 133.053 102.982 133.059 119.117 133.05C123.878 133.05 126.841 130.896 128.269 126.346C132.941 111.459 137.6 96.5697 142.227 81.6705C144.243 75.1809 140.291 69.6993 133.51 69.6929C101.033 69.6609 68.5567 69.6705 36.0767 69.6865C31.6191 69.6865 28.5695 71.9297 27.2351 76.1729C22.5247 91.1617 17.8271 106.154 13.2095 121.168C12.7711 122.592 12.6175 124.259 12.8799 125.719C13.6831 130.221 17.2127 133.034 21.8431 133.04C38.1343 133.066 54.4287 133.05 70.7199 133.053ZM125.533 64.4577C125.533 61.7377 125.411 59.2289 125.558 56.7361C125.894 51.0817 122.099 46.4321 115.366 46.5409C102.659 46.7425 89.9455 46.5409 77.2383 46.6273C72.4191 46.6593 68.3743 45.1681 65.0815 41.6097C63.4879 39.8881 61.7439 38.3009 60.1055 36.6177C58.0991 34.5569 55.7151 33.5649 52.8095 33.5809C42.5567 33.6289 32.3039 33.5969 22.0479 33.6065C21.2511 33.6065 20.4351 33.6193 19.6639 33.7921C15.5295 34.7265 12.7039 38.1505 12.6943 42.4129C12.6623 62.8129 12.6751 83.2129 12.6751 103.613C12.6751 103.859 12.7103 104.106 12.7295 104.352C13.0815 103.968 13.2287 103.539 13.3631 103.107C16.2591 93.8625 19.1551 84.6177 22.0543 75.3697C24.3391 68.0737 29.2575 64.4577 36.8959 64.4577C65.6799 64.4577 94.4639 64.4577 123.248 64.4577H125.529H125.533Z" fill="#666666"></path><path d="M151.894 51.6959H139.578C138.403 51.6959 137.453 50.7455 137.453 49.5711C137.453 48.3967 138.403 47.4463 139.578 47.4463H151.894C153.069 47.4463 154.019 48.3967 154.019 49.5711C154.019 50.7455 153.069 51.6959 151.894 51.6959Z" fill="#666666"></path><path d="M136.224 40.6946C135.68 40.6946 135.136 40.4866 134.723 40.0738C133.894 39.245 133.894 37.901 134.723 37.0722L143.434 28.3618C144.262 27.533 145.606 27.533 146.438 28.3618C147.27 29.1906 147.267 30.5346 146.438 31.3634L137.728 40.0738C137.312 40.4898 136.771 40.6946 136.227 40.6946H136.224Z" fill="#666666"></path><path d="M125.578 36.6846C124.403 36.6846 123.453 35.7342 123.453 34.5598V22.243C123.453 21.0718 124.403 20.1182 125.578 20.1182C126.752 20.1182 127.702 21.0686 127.702 22.243V34.5598C127.702 35.731 126.752 36.6846 125.578 36.6846Z" fill="#666666"></path><path d="M68.2849 101.309C67.8465 101.309 67.4081 101.142 67.0753 100.81L55.1937 88.9535C54.5249 88.2847 54.5217 87.1999 55.1937 86.5311C55.8625 85.8623 56.9473 85.8591 57.6161 86.5311L69.4977 98.3871C70.1665 99.0559 70.1697 100.141 69.4977 100.81C69.1617 101.146 68.7233 101.312 68.2849 101.312V101.309Z" fill="#666666"></path><path d="M56.5023 102.048C56.0703 102.048 55.6351 101.885 55.3023 101.559C54.6271 100.896 54.6143 99.8114 55.2767 99.1362L68.1311 86.0194C68.7935 85.3442 69.8783 85.3314 70.5535 85.9938C71.2287 86.6562 71.2415 87.741 70.5791 88.4162L57.7247 101.533C57.3887 101.875 56.9439 102.048 56.5023 102.048Z" fill="#666666"></path><path d="M104.925 102.086C104.486 102.086 104.048 101.92 103.715 101.584L90.5216 88.3903C89.8528 87.7215 89.8528 86.6367 90.5216 85.9679C91.1904 85.2991 92.2752 85.2991 92.944 85.9679L106.138 99.1615C106.806 99.8303 106.806 100.915 106.138 101.584C105.805 101.917 105.363 102.086 104.928 102.086H104.925Z" fill="#666666"></path><path d="M92.9761 101.453C92.5377 101.453 92.0993 101.286 91.7665 100.953C91.0977 100.285 91.0977 99.1998 91.7665 98.531L102.979 87.2958C103.648 86.627 104.733 86.6238 105.402 87.2958C106.07 87.9646 106.07 89.0494 105.402 89.7182L94.1889 100.953C93.8529 101.289 93.4145 101.456 92.9761 101.456V101.453Z" fill="#666666"></path><path d="M58.3329 122.403C57.8433 122.403 57.3601 122.195 57.0209 121.792C56.4129 121.069 56.5057 119.987 57.2321 119.379C62.9857 114.55 70.2945 111.891 77.8177 111.891C85.3409 111.891 92.6497 114.55 98.4033 119.379C99.1265 119.987 99.2225 121.069 98.6145 121.792C98.0065 122.515 96.9249 122.611 96.2017 122.003C91.0657 117.693 84.5377 115.318 77.8177 115.318C71.0977 115.318 64.5729 117.693 59.4337 122.006C59.1137 122.275 58.7201 122.406 58.3329 122.406V122.403Z" fill="#666666"></path></svg>