<svg width="40" height="40" viewBox="0 0 40 40" fill="none" xmlns="http://www.w3.org/2000/svg"><path fill-rule="evenodd" clip-rule="evenodd" d="M36.594 19.881C36.2624 19.5493 35.724 19.5477 35.3907 19.881L33.9474 21.3243C34.194 16.946 32.5607 12.6693 29.4607 9.56766C26.5757 6.66766 22.6524 5.04266 18.564 5.05433C14.474 5.04266 10.549 6.66766 7.6657 9.56766C1.6557 15.5893 1.6557 25.341 7.6657 31.3643C7.82404 31.5227 8.0407 31.6143 8.26737 31.6127C8.49237 31.6143 8.70904 31.5227 8.86737 31.3643C9.19904 31.0327 9.2007 30.4943 8.86904 30.1627C8.86904 30.161 8.86737 30.161 8.86737 30.161C3.52237 24.8027 3.52237 16.1293 8.86737 10.771C11.4324 8.191 14.924 6.74433 18.564 6.75433C22.2007 6.74433 25.6924 8.191 28.259 10.771C31.1374 13.651 32.5857 17.661 32.2124 21.7177L30.379 19.8843C30.0474 19.551 29.509 19.551 29.1774 19.8827C29.1774 19.8827 29.1774 19.8827 29.1757 19.8843C28.844 20.216 28.844 20.7527 29.1757 21.086V21.0877L32.2824 24.1927C32.4424 24.3527 32.659 24.4427 32.8824 24.441C33.109 24.4427 33.3257 24.3527 33.484 24.1927L36.5907 21.0877C36.924 20.7577 36.9274 20.2193 36.599 19.886L36.594 19.881Z" fill="#fff"></path><path fill-rule="evenodd" clip-rule="evenodd" d="M15.1843 14.208C14.8676 14.0763 14.5009 14.148 14.2576 14.3913L11.416 17.233C11.0843 17.5647 11.0843 18.103 11.4143 18.4363H11.416C11.746 18.768 12.286 18.7697 12.6176 18.4397C12.6176 18.438 12.6193 18.438 12.6193 18.4363L14.011 17.0463V27.2713C14.011 27.7413 14.3893 28.1213 14.8609 28.1213C15.3293 28.1213 15.7093 27.7413 15.7093 27.2713V14.993C15.7093 14.6497 15.5009 14.3397 15.1843 14.208Z" fill="#fff"></path><path fill-rule="evenodd" clip-rule="evenodd" d="M24.2583 24.2275C24.2566 25.4392 23.2749 26.4208 22.0649 26.4225C20.8516 26.4208 19.8683 25.4392 19.8683 24.2275V18.0375C19.8699 16.8258 20.8516 15.8442 22.0633 15.8425C23.2733 15.8442 24.2549 16.8275 24.2566 18.0375L24.2583 24.2275ZM22.0649 14.1442C19.9149 14.1458 18.1716 15.8875 18.1699 18.0375V24.2275C18.1716 26.3775 19.9149 28.1192 22.0649 28.1208C24.2149 28.1192 25.9566 26.3758 25.9583 24.2275V18.0375C25.9566 15.8875 24.2149 14.1458 22.0649 14.1442Z" fill="#fff"></path></svg>