<svg width="40" height="40" viewBox="0 0 40 40" fill="none" xmlns="http://www.w3.org/2000/svg"><path d="M9.9 17.6C9.4 17.6 9 17.2 9 16.7V12.8C9 10.7 10.7 9 12.8 9H16.7C17.2 9 17.6 9.4 17.6 9.9C17.6 10.4 17.2 10.7 16.7 10.7H12.8C11.6 10.7 10.7 11.6 10.7 12.8V16.7C10.7 17.2 10.4 17.6 9.9 17.6Z" fill="#fff"></path><path d="M16.7 31.4H12.8C10.7 31.4 9 29.7 9 27.6V23.7C9 23.2 9.4 22.9 9.9 22.9C10.4 22.9 10.8 23.3 10.8 23.7V27.6C10.8 28.8 11.7 29.7 12.9 29.7H16.8C17.3 29.7 17.7 30.1 17.7 30.5C17.7 30.9 17.2 31.4 16.7 31.4Z" fill="#fff"></path><path d="M30.5998 17.6C30.0998 17.6 29.6998 17.2 29.6998 16.7V12.8C29.6998 11.6 28.7998 10.7 27.5998 10.7H23.6998C23.1998 10.7 22.7998 10.3 22.7998 9.8C22.7998 9.3 23.1998 9 23.6998 9H27.5998C29.6998 9 31.3998 10.7 31.3998 12.8V16.7C31.3998 17.2 30.9998 17.6 30.5998 17.6Z" fill="#fff"></path><path d="M27.5998 31.4H23.6998C23.1998 31.4 22.7998 31 22.7998 30.6C22.7998 30.2 23.1998 29.8 23.6998 29.8H27.5998C28.7998 29.8 29.6998 28.9 29.6998 27.7V23.8C29.6998 23.3 30.0998 23 30.5998 23C31.0998 23 31.4998 23.4 31.4998 23.8V27.7C31.3998 29.7 29.6998 31.4 27.5998 31.4Z" fill="#fff"></path></svg>