<svg width="40" height="40" viewBox="0 0 24 24" fill="none" xmlns="http://www.w3.org/2000/svg"><path d="M10.02 5.4C10.32 5.4 10.56 5.64 10.56 5.94V8.28C10.56 9.54 9.53999 10.56 8.27999 10.56H5.93999C5.63999 10.56 5.39999 10.32 5.39999 10.02C5.39999 9.72 5.63999 9.48 5.93999 9.48H8.27999C8.99999 9.48 9.53999 8.94 9.53999 8.22V5.94C9.53999 5.64 9.71999 5.4 10.02 5.4Z" fill="#fff"></path><path d="M5.93999 13.68H8.27999C9.53999 13.68 10.56 14.7 10.56 15.96V18.3C10.56 18.6 10.32 18.78 10.02 18.78C9.71999 18.78 9.47999 18.54 9.47999 18.3V15.96C9.47999 15.24 8.93999 14.7 8.21999 14.7H5.93999C5.63999 14.7 5.39999 14.46 5.39999 14.22C5.39999 13.98 5.63999 13.68 5.93999 13.68Z" fill="#fff"></path><path d="M14.22 5.4C14.52 5.4 14.76 5.64 14.76 5.94V8.28C14.76 9 15.3 9.54 16.02 9.54H18.36C18.66 9.54 18.9 9.78 18.9 10.08C18.9 10.38 18.66 10.62 18.36 10.62H16.02C14.76 10.62 13.74 9.6 13.74 8.34V5.94C13.68 5.64 13.92 5.4 14.22 5.4Z" fill="#fff"></path><path d="M15.96 13.68H18.3C18.6 13.68 18.84 13.92 18.84 14.16C18.84 14.4 18.6 14.64 18.3 14.64H15.96C15.24 14.64 14.7 15.18 14.7 15.9V18.24C14.7 18.54 14.46 18.72 14.16 18.72C13.86 18.72 13.62 18.48 13.62 18.24V15.9C13.68 14.7 14.7 13.68 15.96 13.68Z" fill="#fff"></path></svg>