<svg fill="none" height="24" viewBox="0 0 24 24" width="24" xmlns="http://www.w3.org/2000/svg"><path clip-rule="evenodd" d="m12.614 3.21065c-.3611-.28087-.8668-.28087-1.2279 0l-8.99999 6.99995c-.43595.3391-.51449.9674-.17542 1.4033.33907.436.96735.5145 1.4033.1755l.38601-.3003v8.5109c0 1.1046.89543 2 2 2h12c1.1046 0 2-.8954 2-2v-8.511l.3861.3004c.436.339 1.0642.2605 1.4033-.1755.3391-.4359.2605-1.0642-.1754-1.4033z" fill="#aaaaaa" fill-rule="evenodd"/><path d="m10 16c0-.5523.4477-1 1-1h2c.5523 0 1 .4477 1 1v4h-4z" fill="none"/></svg>