<svg viewBox="0 0 300 300.621" xmlns="http://www.w3.org/2000/svg" fill="#1993ff"><path d="M164.5 39.746A110.375 110.375 0 1 1 72 210.12l17.5-13.874A88.125 88.125 0 1 0 77 139.12h30.5l-41.25 41.126L25 139.12h29.75A110.375 110.375 0 0 1 164.5 39.747m32.125 90.125a10.125 10.125 0 0 1 10.125 10.126v48.75a10.25 10.25 0 0 1-10.25 10.25h-59a9.875 9.875 0 0 1-9.375-10.25V137.62a9.875 9.875 0 0 1 9.25-10.124v-9.125a29.875 29.875 0 0 1 33.875-29.624 30.875 30.875 0 0 1 26.25 31v10.125m-13.875-10.5A15.25 15.25 0 0 0 175 105.12a16.125 16.125 0 0 0-23.25 13.626v11.125h32.125z"/></svg>