<svg xmlns="http://www.w3.org/2000/svg" viewBox="0 0 119.998 119.999"><g id="Group_1783" data-name="Group 1783" transform="translate(-11150.002 -2325.002)"><path id="Subtraction_1" data-name="Subtraction 1" d="M16942-7185a59.614,59.614,0,0,1-23.354-4.715,59.992,59.992,0,0,1-10.191-5.532,60.393,60.393,0,0,1-8.879-7.327,60.353,60.353,0,0,1-7.326-8.88,59.884,59.884,0,0,1-5.531-10.192A59.626,59.626,0,0,1,16882-7245a59.622,59.622,0,0,1,4.715-23.354,59.935,59.935,0,0,1,5.531-10.191,60.4,60.4,0,0,1,7.326-8.879,60.393,60.393,0,0,1,8.879-7.327,59.924,59.924,0,0,1,10.191-5.531A59.622,59.622,0,0,1,16942-7305a59.622,59.622,0,0,1,23.354,4.715,59.977,59.977,0,0,1,10.193,5.531,60.307,60.307,0,0,1,8.879,7.327,60.206,60.206,0,0,1,7.328,8.879,59.935,59.935,0,0,1,5.531,10.191A59.617,59.617,0,0,1,17002-7245a59.617,59.617,0,0,1-4.717,23.355,59.884,59.884,0,0,1-5.531,10.192,60.286,60.286,0,0,1-7.328,8.88,60.276,60.276,0,0,1-8.879,7.327,59.97,59.97,0,0,1-10.193,5.532A59.614,59.614,0,0,1,16942-7185Zm-27.014-63.318a5.472,5.472,0,0,0-3.891,1.609,5.514,5.514,0,0,0,0,7.779l18.338,18.339a5.473,5.473,0,0,0,3.893,1.613,5.466,5.466,0,0,0,3.887-1.613l38.053-38.048a5.514,5.514,0,0,0,0-7.779,5.472,5.472,0,0,0-3.891-1.609,5.473,5.473,0,0,0-3.893,1.609l-34.156,34.157-14.453-14.448A5.46,5.46,0,0,0,16914.984-7248.317Z" transform="translate(-5732 9630)" fill="#99c14d"></path></g></svg>