<svg width="24" height="24" viewBox="0 0 24 24" fill="none" xmlns="http://www.w3.org/2000/svg" class="sortCheckIcon-0-1-212"><path d="M5.70711 11.2929C5.31658 10.9024 4.68342 10.9024 4.29289 11.2929C3.90237 11.6834 3.90237 12.3166 4.29289 12.7071L9.29289 17.7071C9.68342 18.0976 10.3166 18.0976 10.7071 17.7071L19.7071 8.70711C20.0976 8.31658 20.0976 7.68342 19.7071 7.29289C19.3166 6.90237 18.6834 6.90237 18.2929 7.29289L10 15.5858L5.70711 11.2929Z" fill="#222222"></path><mask id="mask0_22059_938" maskUnits="userSpaceOnUse" x="4" y="7" width="16" height="11"><path d="M5.70711 11.2929C5.31658 10.9024 4.68342 10.9024 4.29289 11.2929C3.90237 11.6834 3.90237 12.3166 4.29289 12.7071L9.29289 17.7071C9.68342 18.0976 10.3166 18.0976 10.7071 17.7071L19.7071 8.70711C20.0976 8.31658 20.0976 7.68342 19.7071 7.29289C19.3166 6.90237 18.6834 6.90237 18.2929 7.29289L10 15.5858L5.70711 11.2929Z" fill="#ffffff"></path></mask><g mask="url(#mask0_22059_938)"><rect width="24" height="24" fill="#ffffff"></rect></g></svg>