<svg width="40" height="40" viewBox="0 0 40 40" fill="none" xmlns="http://www.w3.org/2000/svg" class="leftIcon-0-1-50 install-0-1-49"><path d="M19.3333 27.3333H19.3467M14.2667 33.3333H24.4C25.8935 33.3333 26.6402 33.3333 27.2106 33.0427C27.7124 32.787 28.1204 32.3791 28.376 31.8773C28.6667 31.3069 28.6667 30.5601 28.6667 29.0667V10.9333C28.6667 9.43985 28.6667 8.69311 28.376 8.12268C28.1204 7.62092 27.7124 7.21297 27.2106 6.95731C26.6402 6.66666 25.8935 6.66666 24.4 6.66666H14.2667C12.7732 6.66666 12.0265 6.66666 11.456 6.95731C10.9543 7.21297 10.5463 7.62092 10.2906 8.12268C10 8.69311 10 9.43985 10 10.9333V29.0667C10 30.5601 10 31.3069 10.2906 31.8773C10.5463 32.3791 10.9543 32.787 11.456 33.0427C12.0265 33.3333 12.7732 33.3333 14.2667 33.3333ZM20 27.3333C20 27.7015 19.7015 28 19.3333 28C18.9651 28 18.6667 27.7015 18.6667 27.3333C18.6667 26.9651 18.9651 26.6667 19.3333 26.6667C19.7015 26.6667 20 26.9651 20 27.3333Z" stroke="white" stroke-width="2.5" stroke-linecap="round" stroke-linejoin="round"></path></svg>