<svg class="" width="24" height="24" viewBox="0 0 24 24" fill="none" xmlns="http://www.w3.org/2000/svg"><path fill-rule="evenodd" clip-rule="evenodd" d="M17.0587 3.60001H7.51273C6.47494 3.59981 5.4796 4.01198 4.74577 4.7458C4.01195 5.47963 3.59978 6.47497 3.59998 7.51276V17.0595C3.59978 18.0973 4.01195 19.0926 4.74577 19.8265C5.4796 20.5603 6.47494 20.9725 7.51273 20.9723H17.0587C18.0964 20.9723 19.0915 20.56 19.8252 19.8262C20.5589 19.0924 20.9709 18.0972 20.9707 17.0595V7.51276C20.9709 6.4751 20.5589 5.47987 19.8252 4.74607C19.0915 4.01227 18.0964 3.60001 17.0587 3.60001ZM7.43773 17.3142C6.84043 17.3142 6.35623 16.83 6.35623 16.2327C6.35623 15.6354 6.84043 15.1512 7.43773 15.1512C8.03502 15.1512 8.51923 15.6354 8.51923 16.2327C8.51923 16.5195 8.40528 16.7946 8.20246 16.9974C7.99964 17.2002 7.72456 17.3142 7.43773 17.3142ZM10.7568 17.3138H17.1318C17.7178 17.2984 18.1848 16.8189 18.1848 16.2327C18.1848 15.6465 17.7178 15.167 17.1318 15.1516H10.7568C10.3638 15.1412 9.9961 15.345 9.79653 15.6837C9.59696 16.0225 9.59696 16.4429 9.79653 16.7816C9.9961 17.1204 10.3638 17.3242 10.7568 17.3138ZM17.1304 13.2869H7.43737C6.85137 13.2714 6.38435 12.7919 6.38435 12.2057C6.38435 11.6195 6.85137 11.1401 7.43737 11.1246H17.1304C17.7164 11.1401 18.1834 11.6195 18.1834 12.2057C18.1834 12.7919 17.7164 13.2714 17.1304 13.2869ZM7.43737 9.42085H17.1304C17.7164 9.40541 18.1834 8.92593 18.1834 8.33973C18.1834 7.75352 17.7164 7.27404 17.1304 7.2586H7.43737C6.85137 7.27404 6.38435 7.75352 6.38435 8.33973C6.38435 8.92593 6.85137 9.40541 7.43737 9.42085Z" fill="#1993ff"></path></svg>