<svg class="WindowsLogo-0-1-2152" width="52" height="52" viewBox="0 0 52 52" fill="none" xmlns="http://www.w3.org/2000/svg"><rect x="6.74072" y="10.5918" width="38.5185" height="26.963" rx="5" fill="#cccccc" stroke="#cccccc" stroke-width="2"></rect><line x1="2.92578" y1="40.4062" x2="49.0739" y2="40.4062" stroke="#cccccc" stroke-width="2" stroke-linecap="round"></line><line x1="2.92578" y1="40.4062" x2="49.0739" y2="40.4062" stroke="#cccccc" stroke-width="2" stroke-linecap="round"></line><path d="M21.004 25.3591V28H19.7676V20.8909H22.4858C23.2798 20.8909 23.9101 21.0985 24.3767 21.5136C24.8464 21.9258 25.0813 22.4712 25.0813 23.15C25.0813 23.847 24.8525 24.3894 24.3949 24.7773C23.9373 25.1652 23.2964 25.3591 22.4722 25.3591H21.004ZM21.004 24.3682H22.4858C22.9252 24.3682 23.2601 24.2652 23.4904 24.0591C23.7237 23.85 23.8404 23.55 23.8404 23.1591C23.8404 22.7773 23.7222 22.4712 23.4858 22.2409C23.2525 22.0106 22.9313 21.8924 22.5222 21.8864H21.004V24.3682ZM31.5771 25.6864C31.5074 26.4439 31.2286 27.0348 30.7407 27.4591C30.2529 27.8833 29.6029 28.0955 28.7907 28.0955C28.2241 28.0955 27.7241 27.9621 27.2907 27.6955C26.8604 27.4258 26.5286 27.0439 26.2953 26.55C26.0619 26.0561 25.9407 25.4818 25.9316 24.8273V24.1636C25.9316 23.4909 26.0498 22.9 26.2862 22.3909C26.5225 21.8788 26.8635 21.4848 27.3089 21.2091C27.7544 20.9303 28.268 20.7909 28.8498 20.7909C29.6347 20.7909 30.2665 21.0045 30.7453 21.4318C31.2241 21.8591 31.5013 22.4621 31.5771 23.2409H30.3498C30.2892 22.7288 30.1392 22.3606 29.8998 22.1364C29.6604 21.9091 29.3104 21.7955 28.8498 21.7955C28.3135 21.7955 27.9013 21.9924 27.6135 22.3864C27.3256 22.7773 27.1771 23.3515 27.168 24.1091V24.7364C27.168 25.5061 27.3059 26.0924 27.5816 26.4955C27.8574 26.8985 28.2604 27.1 28.7907 27.1C29.2756 27.1 29.6392 26.9909 29.8816 26.7727C30.1271 26.5545 30.2832 26.1924 30.3498 25.6864H31.5771Z" fill="white"></path></svg>