<svg width="60" height="60" viewBox="0 0 60 60" fill="none" xmlns="http://www.w3.org/2000/svg" class="menuItemIcon-0-1-192"><g><path d="M41.3647 26.1352L33.8623 18.6328L17.2647 35.2304L24.7671 42.7328L41.3647 26.1352Z" fill="white"></path><path d="M44.6789 15.3187C45.6738 16.3136 46.2327 17.6629 46.2327 19.0699C46.2327 20.4769 45.6738 21.8262 44.6789 22.8211L43.0066 24.4934L35.5042 16.991L37.1765 15.3187C38.1714 14.3238 39.5208 13.7649 40.9277 13.7649C42.3347 13.7649 43.6841 14.3238 44.6789 15.3187V15.3187Z" fill="white"></path><path d="M15.1453 46.5126L23.1254 44.3751L15.6254 36.8751L13.4878 44.8551C13.4268 45.0845 13.4273 45.3259 13.489 45.5552C13.5507 45.7844 13.6715 45.9933 13.8393 46.1612C14.0072 46.329 14.216 46.4498 14.4452 46.5115C14.6745 46.5732 14.9159 46.5736 15.1453 46.5126Z" fill="white"></path></g><defs><clipPath id="clip0"><rect width="60" height="60" fill="white"></rect></clipPath></defs></svg>