<svg class="" width="24" height="24" viewBox="0 0 24 24" fill="none" xmlns="http://www.w3.org/2000/svg"><path d="M11.2581 18.7938L8.17525 20.4152C7.63554 20.6989 6.98152 20.6517 6.4882 20.2933C5.99488 19.9349 5.74782 19.3275 5.85092 18.7265L6.4359 15.2936C6.52489 14.7742 6.35284 14.2442 5.97571 13.876L3.48174 11.4444C3.04658 11.0188 2.89033 10.3832 3.07848 9.80426C3.26664 9.22532 3.76668 8.80306 4.36896 8.71453L7.81646 8.21339C8.33849 8.13747 8.78961 7.80925 9.0225 7.33592L10.5639 4.21601C10.8339 3.66959 11.3906 3.32373 12.0001 3.32373C12.6095 3.32373 13.1662 3.66959 13.4362 4.21601L14.9776 7.33592C15.2106 7.80913 15.6617 8.13731 16.1837 8.21339L19.6302 8.71453C20.2326 8.80275 20.733 9.22489 20.9214 9.80389C21.1097 10.3829 20.9536 11.0186 20.5184 11.4444L18.0244 13.876C17.6468 14.2439 17.4743 14.774 17.5633 15.2936L18.1482 18.7265C18.2511 19.3272 18.0041 19.9342 17.5111 20.2926C17.0181 20.6509 16.3645 20.6984 15.8249 20.4152L12.742 18.7938C12.2772 18.5507 11.7229 18.5507 11.2581 18.7938Z" fill="#1993ff"></path></svg>