<svg height="24" viewBox="0 0 24 24" width="24" xmlns="http://www.w3.org/2000/svg"><g fill="none"><path d="m0 0h24v24h-24z"/><path d="m8 8.99999v2h-3v9h14v-9h-3v-2h3c1.1046 0 2 .89543 2 2v9c0 1.10461-.8954 2-2 2h-14c-1.10457 0-2-.89539-2-2v-9c0-1.10458.89543-2 2-2zm4.8839-6.53146 3.3587 3.35876c.3906.39053.3906 1.02369 0 1.41421-.3905.39053-1.0236.39053-1.4142 0l-1.8284-1.82842v9.58692c0 .5523-.4477 1-1 1s-1-.4477-1-1v-9.58692l-1.82843 1.82842c-.39052.39053-1.02369.39053-1.41421 0-.39052-.39052-.39052-1.02368 0-1.41421l3.35874-3.35876c.4882-.48815 1.2796-.48815 1.7678 0z" fill="#ffffff"/></g></svg>