<svg class="activeIcon-0-1-113" width="24" height="24" viewBox="0 0 24 24" fill="none" xmlns="http://www.w3.org/2000/svg"><path d="M20.385 14.8564C19.778 13.2394 18.498 11.968 16.8795 11.3745C16.2665 11.1301 15.5732 11.2012 15.0223 11.565C13.067 12.9437 10.4579 12.9403 8.50621 11.5564C7.96578 11.2009 7.28704 11.1299 6.68506 11.3659C5.06232 11.9555 3.77603 13.2242 3.16151 14.8411C2.82935 15.8076 3.01671 16.8774 3.65741 17.6726C5.58715 20.2214 8.58254 21.7345 11.7742 21.7726C14.989 21.766 18.0123 20.2398 19.9319 17.6545C20.5428 16.8576 20.713 15.8061 20.385 14.8564Z" fill="#AAAAAA"></path><path d="M11.7775 11.2353C14.3199 11.2316 16.38 9.16599 16.3831 6.61716C16.3861 5.39184 15.9 4.21625 15.0331 3.3524C14.1714 2.48365 12.9987 1.99667 11.7765 2.00002C9.23597 2.00787 7.17867 4.07117 7.17189 6.61811C7.1687 7.84347 7.65483 9.01914 8.52184 9.88287C9.3834 10.7514 10.5557 11.2383 11.7775 11.2353Z" fill="#AAAAAA"></path></svg>