<svg width="40" height="40" viewBox="0 0 25 24" fill="none" xmlns="http://www.w3.org/2000/svg"><path fill-rule="evenodd" clip-rule="evenodd" d="M18.6651 3.24638C18.8604 3.44164 18.8604 3.75822 18.6651 3.95348L5.66514 16.9535C5.46988 17.1487 5.15329 17.1487 4.95803 16.9535C4.76277 16.7582 4.76277 16.4416 4.95803 16.2464L17.958 3.24638C18.1533 3.05111 18.4699 3.05111 18.6651 3.24638Z" fill="#fff"></path><path fill-rule="evenodd" clip-rule="evenodd" d="M13.5301 6.63482C13.1823 5.94232 12.2215 5.68056 11.5671 6.26226L9.0787 8.474C8.87291 8.65699 8.60707 8.75797 8.33191 8.75797H6.67981C5.99674 8.75797 5.44293 9.31178 5.44293 9.99485V14.1175C5.44293 14.2953 5.48042 14.4643 5.54791 14.617L13.5301 6.63482ZM8.22473 15.3544H8.68842C8.96391 15.3544 9.22942 15.4556 9.43537 15.6384L11.5671 17.5332C12.3788 18.2547 13.6619 17.6786 13.6619 16.5926V9.91727L8.22473 15.3544Z" fill="#fff"></path></svg>