<svg width="40" height="40" viewBox="0 0 40 40" fill="none" xmlns="http://www.w3.org/2000/svg"><path fill-rule="evenodd" clip-rule="evenodd" d="M17.7279 10.534L13.5806 14.2202C13.2376 14.5252 12.7946 14.6935 12.336 14.6935H9.58246C8.44401 14.6935 7.521 15.6165 7.521 16.755V23.6261C7.521 24.7649 8.44401 25.6876 9.58246 25.6876H12.9301C13.3893 25.6876 13.8318 25.8562 14.1751 26.1609L17.7279 29.3189C19.0807 30.5214 21.2192 29.5613 21.2192 27.7513V12.1019C21.2192 10.2917 19.0807 9.3315 17.7279 10.534Z" fill="#fff"></path><path fill-rule="evenodd" clip-rule="evenodd" d="M24.5255 28.8835C29.0494 28.3406 32.4633 24.4892 32.4633 19.9251C32.4633 15.3611 29.0494 11.5096 24.5225 10.9664C24.5003 10.9637 24.4781 10.9626 24.4559 10.9626C24.1693 10.9626 23.9186 11.1774 23.8837 11.4686C23.8651 11.6208 23.9075 11.7711 24.0021 11.8917C24.0972 12.0126 24.233 12.0891 24.3855 12.1074C28.3354 12.5812 31.3141 15.9419 31.3141 19.9251C31.3141 23.9083 28.3354 27.2693 24.3855 27.7429C24.0708 27.7806 23.8457 28.0673 23.8837 28.3817C23.9211 28.6944 24.2036 28.9201 24.5255 28.8835Z" fill="#fff"></path><path fill-rule="evenodd" clip-rule="evenodd" d="M28.0938 19.9251C28.0938 17.8013 26.6559 15.9486 24.5972 15.4198C24.5496 15.4079 24.5016 15.4021 24.4545 15.4021C24.1985 15.4021 23.9643 15.5745 23.898 15.8335C23.8192 16.1404 24.0047 16.4543 24.3114 16.533C25.8618 16.9312 26.9446 18.3258 26.9446 19.9251C26.9446 21.5244 25.8618 22.919 24.3114 23.3171C24.0047 23.3959 23.8192 23.7098 23.898 24.0167C23.9753 24.3178 24.2934 24.5085 24.5975 24.4301C26.6559 23.9013 28.0938 22.0489 28.0938 19.9251Z" fill="#fff"></path></svg>