<svg xmlns="http://www.w3.org/2000/svg" width="30" height="30" viewBox="0 0 30 30" class="c-spoilerIcon-0-1-607"><path d="M15 .682A14.32 14.32 0 0 0 4.876 25.123a14.32 14.32 0 0 0 24.441-10.124A14.32 14.32 0 0 0 15 .682zM12.5 7.96c0-1.383 1.12-2.504 2.504-2.504s2.503 1.12 2.503 2.504v7.514c0 1.383-1.12 2.504-2.503 2.504s-2.503-1.12-2.503-2.504zm4.958 15.045a2.44 2.44 0 0 1-.143.465 2.41 2.41 0 0 1-.229.433 2.68 2.68 0 0 1-.311.382 2.5 2.5 0 0 1-3.54 0c-.117-.116-.22-.244-.31-.382s-.17-.28-.233-.433a2.73 2.73 0 0 1-.143-.465 2.58 2.58 0 0 1-.046-.49 2.5 2.5 0 0 1 .733-1.77c.115-.116.242-.22.38-.31a2.74 2.74 0 0 1 .433-.232c.15-.06.308-.108.468-.14a2.5 2.5 0 0 1 2.993 2.453 2.55 2.55 0 0 1-.054.489z" fill="#ffc400"></path></svg>