<?xml version="1.0" encoding="UTF-8"?>
<svg width="200" height="62.6" version="1.1" viewBox="0 0 200 62.6" xmlns="http://www.w3.org/2000/svg">
 <path d="m73.55 0a1.958 1.958 0 0 0-1.595 0.8303 1.911 1.911 0 0 0-0.3172 1.101v48.82l0.0653 1.287c0.07165 0.7833 0.2274 1.555 0.4758 2.295a8.168 8.168 0 0 0 0.9515 1.95c0.3917 0.5827 0.8553 1.113 1.381 1.577l0.09329 0.09329a9.983 9.983 0 0 0 1.577 1.101 13.71 13.71 0 0 0 1.866 0.8862l1.95 0.6437 1.278 0.3358 0.7183 0.1493 1.996 0.3825 1.996 0.2985 1.996 0.2426 1.987 0.1679c0.6687 0.05095 1.337 0.08943 2.006 0.1213 0.6591 0.03184 1.327 0.06167 2.006 0.08396 0.6782 0.02229 1.355 0.03731 2.034 0.03731 0.6751 0.01274 1.361 0.01274 2.062 0 0.7005-0.0096 1.408-0.03346 2.108-0.0653h0.2799c0.656-0.02866 1.295-0.06122 1.912-0.1026l2.202-0.1772 2.248-0.2519 2.314-0.3452c0.8215-0.1465 1.609-0.3038 2.36-0.4758l2.388-0.6344c0.6448-0.2006 1.251-0.4142 1.8-0.653l1.063 0.4011a33.91 33.91 0 0 0 4.599 1.241l4.86 0.7463 5.252 0.4198c1.366 0.06209 2.738 0.09329 4.123 0.09329h1.651l6.241-0.3452c2.188-0.2006 4.362-0.5217 6.512-0.9515 1.882-0.3678 3.718-0.907 5.495-1.614a25.17 25.17 0 0 0 4.03 1.25 74.22 74.22 0 0 0 17.65 1.437h0.084a59.51 59.51 0 0 0 14.01-1.866 13.85 13.85 0 0 0 5.364-2.565 2.197 2.197 0 0 0 0.1772-0.1586c0.6974-0.6973 1.272-1.505 1.716-2.388 0.0955-0.1911 0.1893-0.3873 0.2705-0.5784a8.884 8.884 0 0 0 0.6997-3.461v-24.48c-0.0143-1.065-0.8846-1.917-1.95-1.912h-3.825c-2.221-0.0096-4.25 1.278-5.205 3.284-0.3678 0.7164-0.5597 1.543-0.5597 2.388v20.06c0 0.234-0.0444 0.4754-0.1399 0.6903a1.911 1.911 0 0 1-0.4198 0.6064l-0.0933 0.09329c-0.277 0.2197-0.5892 0.3935-0.9236 0.5224-3.821 1.094-7.799 1.571-11.76 1.409-2.178 0-4.321-0.09814-6.232-0.2892a13.95 13.95 0 0 1-6.493-1.67l-0.0466-0.04665c-0.0716-0.0812-0.1334-0.142-0.2146-0.2519-0.0812-0.1099-0.1575-0.2303-0.2052-0.3545-0.086-0.2245-0.1354-0.4608-0.1306-0.6997v-19.98a8.98 8.98 0 0 0-0.1586-1.642c-0.1146-0.6209-0.3022-1.232-0.5411-1.819a9.075 9.075 0 0 0-1.493-2.388l-0.5038-0.5411a1.815 1.815 0 0 0-0.1679-0.1586c-1.672-1.261-3.498-2.162-5.495-2.64a53.64 53.64 0 0 0-10.18-1.726l-7.165-0.2799-3.815 0.07463a65.91 65.91 0 0 0-11.63 1.437 21.73 21.73 0 0 0-6.213 2.258 7.738 7.738 0 0 0-1.194 0.8769 1.958 1.958 0 0 0-0.1772 0.1586 9.266 9.266 0 0 0-1.026 1.222 8.98 8.98 0 0 0-0.8676 1.493l-0.0933 0.2052a9.457 9.457 0 0 0-0.6157 2.304c-0.0525 0.3821-0.0699 0.7653-0.0746 1.147v20.01c0 0.2388-0.0537 0.4752-0.1493 0.6997-0.043 0.1146-0.0819 0.1884-0.1679 0.3078-0.086 0.1194-0.1748 0.231-0.2799 0.3265l-0.0933 0.09329c-0.3344 0.2484-0.695 0.4446-1.091 0.5784a12.61 12.61 0 0 1-1.735 0.4851l-1.763 0.3078-1.716 0.2239-1.67 0.1399-1.623 0.1026-1.577 0.04665h-3.06l-1.493-0.04665-1.465-0.1026-1.437-0.1213-1.437-0.1772-1.427-0.2332-1.437-0.3172-0.8489-0.2332-0.5411-0.1959a2.961 2.961 0 0 1-1.203-0.7556l-0.03732-0.04665-0.01866-0.02798c-0.2961-0.5063-0.4302-1.087-0.3825-1.67v-44.38c-0.01432-0.8836-0.2286-1.759-0.625-2.547-0.9792-1.949-2.976-3.167-5.159-3.162h-3.508zm-71.6 0.009329v0.009329c-1.056 0.01911-1.912 0.8616-1.95 1.912v54.54a6.066 6.066 0 0 0 1.698 4.114c0.5063 0.5302 1.104 0.9583 1.772 1.269a5.445 5.445 0 0 0 2.314 0.5224h3.825a1.911 1.911 0 0 0 1.94-1.912v-54.73a5.636 5.636 0 0 0-0.8209-2.911 5.732 5.732 0 0 0-0.7556-0.9982l-0.1306-0.1306a5.779 5.779 0 0 0-4.077-1.679zm37.32 0.1026c-2.837 0.06209-5.671 0.3167-8.48 0.737a30.09 30.09 0 0 0-7.762 2.09 8.645 8.645 0 0 0-2.453 1.595l-0.1306 0.1213a9.935 9.935 0 0 0-1.67 2.425c-0.2388 0.4872-0.4301 0.9952-0.5877 1.521-0.3487 1.242-0.5363 2.526-0.5411 3.815v19.53a2.102 2.102 0 0 0 0 0.4291 12.99 12.99 0 0 0 0.3358 1.651 9.505 9.505 0 0 0 2.435 4.301 9.075 9.075 0 0 0 0.7836 0.709 11.8 11.8 0 0 0 4.217 2.08c2.106 0.597 4.259 1.011 6.437 1.241a61.47 61.47 0 0 0 14.09-0.4758 11.22 11.22 0 0 0 1.306-0.1772v0.2052l7.165-0.8116h0.1213v10.43a2.34 2.34 0 0 1-0.5784 1.586c-0.5779 0.5923-1.315 1.003-2.127 1.175-2.226 0.5015-4.453 0.7918-6.689 0.8396l-0.9142 0.02799a148.7 148.7 0 0 1-11.85-0.3918l-1.81-0.1866a3.343 3.343 0 0 0-3.284 1.166c-0.3057 0.3964-0.5511 0.8377-0.7183 1.315a10.79 10.79 0 0 0-0.4758 1.791 1.958 1.958 0 0 0 1.147 2.286l1.017 0.3172c3.711 0.5875 7.551 0.922 11.35 0.9889l1.437 0.04664 6.446-0.1213a59.27 59.27 0 0 0 6.763-0.7183l0.6064-0.1119a17.19 17.19 0 0 0 6.353-2.388 8.502 8.502 0 0 0 3.638-5.084 10.46 10.46 0 0 0 0.2985-2.547v-40.29a9.6 9.6 0 0 0-0.3545-2.584c-0.0812-0.3009-0.17-0.5903-0.2799-0.8769-0.4251-1.089-1.059-2.079-1.856-2.939a2.006 2.006 0 0 0-0.1679-0.1586 16 16 0 0 0-7.295-3.19c-2.57-0.5588-5.163-0.9284-7.79-1.119l-5.812-0.2425zm152.4 6.586c-2.24-0.00478-4.058 1.794-4.077 4.039v3.181c0.0191 2.24 1.832 4.053 4.077 4.049h4.226c2.24 0.0048 4.062-1.804 4.077-4.049v-3.172c-0.0191-2.24-1.832-4.053-4.077-4.049zm-147 1.856 2.864 0.2239c2.221 0.02866 4.4 0.6088 6.334 1.698 0.191 0.1911 0.3523 0.4185 0.4478 0.6717a1.911 1.911 0 0 1 0.1213 0.6997v20.97l-4.478 0.5224c-0.1719-0.02388-0.3366-0.02388-0.5038 0l-1.129 0.1586-1.25 0.1586a54.55 54.55 0 0 1-15.94 0.1306 6.4 6.4 0 0 1-0.7929-0.1866 3.582 3.582 0 0 1-0.4011-0.1213 2.818 2.818 0 0 1-0.8023-0.4851 2.245 2.245 0 0 1-0.5411-0.6997c-0.1767-0.3678-0.3067-0.7601-0.3545-1.166v-16.86a7.212 7.212 0 0 1 0.5411-3.041 2.723 2.723 0 0 1 0.5691-0.7836c0.3534-0.3343 0.7818-0.5846 1.259-0.7183 2.24-0.6114 4.545-0.9766 6.866-1.101a59.47 59.47 0 0 1 7.192-0.07463zm87.44 19.25c1.152-0.0409 2.306-0.01157 3.461 0.08396a37.69 37.69 0 0 1 12.76 1.605 3.343 3.343 0 0 1 0.8116 0.5038l0.0466 0.04664a1.911 1.911 0 0 1 0.4198 0.6064c0.0955 0.2245 0.1399 0.4608 0.1399 0.6997v19.34c0.01 0.2388-0.026 0.4845-0.1119 0.709a1.911 1.911 0 0 1-0.4198 0.6064l-0.084 0.09329c-1.796 1.008-3.814 1.57-5.868 1.651a63.62 63.62 0 0 1-6.959 0.4198h-0.6997l-5.858-0.2425-0.0373 0.0093a22.64 22.64 0 0 1-6.95-1.39c-0.2579-0.1194-0.4986-0.2711-0.7183-0.4478l-0.0933-0.09329-0.0746-0.07463a1.863 1.863 0 0 1-0.3452-0.5224 1.815 1.815 0 0 1-0.1399-0.6997v-19.35c0-0.2388 0.0537-0.4752 0.1493-0.6997 0.0478-0.1146 0.1056-0.2121 0.1772-0.3172 0.0717-0.1051 0.1377-0.2032 0.2332-0.2892l0.0746-0.07463c3.213-1.318 6.628-2.051 10.08-2.174z" fill="#1993ff" stroke-width="4.776"/>
</svg>
